<svg width="123" height="30" viewBox="0 0 123 30" fill="none" xmlns="http://www.w3.org/2000/svg">
<path fill-rule="evenodd" clip-rule="evenodd" d="M78.2831 0C86.5562 0 93.2624 6.71547 93.2624 15C93.2624 23.2841 86.5562 29.9995 78.2831 29.9995C70.0105 29.9995 63.3044 23.2841 63.3044 15C63.3044 6.71547 70.0105 0 78.2831 0ZM60.6297 4.2861V27.5001C60.6297 28.4837 59.8288 29.2858 58.8464 29.2858H55.2799C54.2981 29.2858 53.4967 28.4837 53.4967 27.5001V10.2883L40.4121 27.8501C39.717 28.7837 38.7165 29.2858 37.5533 29.2858H35.6642C33.7 29.2858 32.0976 27.6817 32.0976 25.7143V2.50038C32.0976 1.51671 32.8986 0.714654 33.8809 0.714654H37.4474C38.4297 0.714654 39.2307 1.51671 39.2307 2.50038V19.7122L52.3148 2.15034C53.0098 1.21719 54.0108 0.714654 55.1731 0.714654H57.0627C59.0269 0.714654 60.6292 2.31921 60.6292 4.2861H60.6297ZM110.025 0.000455194C115.569 0.000455194 120.409 3.01657 122.999 7.49932L120.218 9.10752C118.782 9.93779 117.047 9.74979 115.822 8.63093C114.293 7.2353 112.259 6.38364 110.025 6.38364C107.648 6.38364 105.497 7.34774 103.94 8.90678C102.383 10.4658 101.42 12.6202 101.42 15.0005C101.42 17.3802 102.383 19.5351 103.94 21.0941C105.497 22.6532 107.648 23.6173 110.025 23.6173C112.259 23.6173 114.293 22.7661 115.822 21.37C117.047 20.2511 118.782 20.0631 120.218 20.8934L122.999 22.5016C120.409 26.9843 115.569 30.0005 110.025 30.0005C101.752 30.0005 95.0461 23.285 95.0461 15.0009C95.0461 6.71684 101.752 0.00136558 110.025 0.00136558V0.000455194ZM0 2.50038C0 10.8336 0 19.1668 0 27.5001C0 28.4837 0.800941 29.2858 1.78325 29.2858H5.34976C6.33207 29.2858 7.13301 28.4837 7.13301 27.5001V18.5719H21.3986V27.5001C21.3986 28.4837 22.2 29.2858 23.1823 29.2858H26.7488C27.7307 29.2858 28.5321 28.4837 28.5321 27.5001C28.5321 19.1668 28.5321 10.8336 28.5321 2.50038C28.5321 1.51671 27.7311 0.714654 26.7488 0.714654C25.5597 0.714654 24.371 0.714654 23.1823 0.714654C22.2 0.714654 21.3986 1.51671 21.3986 2.50038C21.3986 5.47644 21.3986 8.45249 21.3986 11.4285H7.13301C7.13301 8.45249 7.13301 5.47598 7.13301 2.50038C7.13301 1.51671 6.33207 0.714654 5.34976 0.714654C4.16108 0.714654 2.97239 0.714654 1.78325 0.714654C0.801396 0.714654 0 1.51671 0 2.50038H0ZM78.2831 6.75007C82.8333 6.75007 86.5216 10.4435 86.5216 15C86.5216 20.4614 83.0065 25.037 78.2831 26.2406V22.8239C73.7334 22.8239 70.0446 19.5565 70.0446 15C70.0446 10.444 73.733 6.75007 78.2831 6.75007Z" fill="#2AACE3"/>
</svg>
