<svg width="59" height="15" viewBox="0 0 59 15" fill="none" xmlns="http://www.w3.org/2000/svg">
<path d="M26.577 3.68775V0.0562959L23.4224 0.499059V3.68753H22.1947V6.69263H23.4224V14.882H26.577V6.69263H28.8642V3.68775H26.577ZM9.33618 9.0776C10.2972 8.23828 10.9138 7.08963 10.9138 5.64794V5.02072C10.9138 2.48916 9.01894 0.629052 6.68231 0.629052L0 0.600831L0.00391574 14.8068L3.16029 14.8337V10.012H6.40456L8.51934 14.8337H12.2133L9.33618 9.0776ZM7.68866 5.47554C7.68866 6.48397 6.93359 7.05592 6.00279 7.05592H3.16029V3.64424H6.00279C6.93359 3.64424 7.68866 4.3524 7.68866 5.36083V5.47554ZM44.794 3.62838H43.125V0L40.0388 0.442617L40.0383 14.8338H44.794C47.1314 14.8338 49.0258 12.8905 49.0258 10.3601V8.21138C49.0258 5.68025 47.1314 3.62838 44.794 3.62838ZM46.0018 10.0723C46.0018 11.1381 45.3375 11.7705 44.3534 11.7705H43.135V6.69402H44.3535C45.3375 6.69402 46.0018 7.32695 46.0018 8.39262L46.0018 10.0723ZM35.6104 3.68775V10.1526C35.6104 11.2182 35.2525 11.9379 34.2684 11.9379H34.2195C33.2359 11.9379 32.8772 11.218 32.8772 10.1526V3.68775H29.7635V10.3992C29.7635 12.9303 30.7864 14.9825 33.8951 14.9825H34.4922C37.7663 14.9825 38.7248 12.9303 38.7248 10.3992V3.68775H35.6104ZM18.06 3.68775V10.1526C18.06 11.2182 17.7019 11.9379 16.7179 11.9379H16.669C15.6855 11.9379 15.327 11.218 15.327 10.1526V3.68775H12.2132V10.3992C12.2132 12.9303 13.2356 14.9825 16.3441 14.9825H16.9418C20.215 14.9825 21.1741 12.9303 21.1741 10.3992V3.68775H18.06ZM56.9247 11.0806C56.9247 11.0806 56.0136 12.2899 54.4121 12.1543C53.4141 12.0698 52.8227 11.5209 52.8227 10.4555V10.0841H58.9313V8.16568C58.9313 5.697 57.2609 3.53187 54.4202 3.53187C51.58 3.53187 49.9057 5.58828 49.9057 8.05718V10.3649C49.9057 12.8347 51.5766 15 54.4168 15C57.6276 15 59 12.575 59 12.575L56.9247 11.0806ZM52.8225 7.53414C52.8225 6.49362 53.435 5.86705 54.3466 5.83825H54.425C55.3741 5.83825 56.0144 6.47117 56.0144 7.53648V7.63029H52.8224L52.8225 7.53414Z" fill="#9D9D9D"/>
</svg>
