<svg width="16" height="15" viewBox="0 0 16 15" fill="none" xmlns="http://www.w3.org/2000/svg">
<path d="M14.9427 0.121989L0.602883 6.13993C-0.181393 6.39099 -0.156402 7.2496 0.42363 7.45602L4.01665 8.69898L5.3914 13.3706C5.55852 13.8818 5.69518 14.0745 5.98051 14.0788C6.28042 14.0834 6.39528 13.962 6.7068 13.6567C7.07154 13.2771 7.62706 12.6795 8.50489 11.7336L12.2423 14.7941C12.93 15.2147 13.4266 14.9968 13.5979 14.0862L15.941 1.23995C16.1922 0.123843 15.6007 -0.209013 14.9427 0.121989ZM4.58053 8.41341L12.7493 2.73294C13.1517 2.43381 13.2778 2.76753 13.0961 2.99815L6.31669 9.75729L5.96884 13.1308L4.58053 8.41341Z" fill="#9D9D9D"/>
</svg>
