<svg width="24" height="15" viewBox="0 0 24 15" fill="none" xmlns="http://www.w3.org/2000/svg">
<path fill-rule="evenodd" clip-rule="evenodd" d="M17.9701 7.52535L17.8827 7.47518C17.9254 7.41006 17.8099 7.4526 17.9849 7.40101C18.069 7.32051 18.3399 7.16623 18.456 7.08432C19.5153 6.33756 20.3887 5.45222 21.1961 4.37372C21.9597 3.35379 23.0078 1.29932 23.0982 0.000218356L19.3029 0C19.1819 0.0581352 19.2787 -0.0677336 19.1992 0.122651L18.8694 1.05701C18.4013 2.20412 17.3944 3.68423 16.4528 4.4805C15.736 5.08672 14.5842 5.88862 13.5407 5.91949L13.5387 0L9.67117 0.00299907L9.65592 10.3822C7.59828 9.77261 6.37259 8.32643 5.49821 6.58395C4.57257 4.73938 4.15262 2.40001 4.10789 0.000436047L0.00291492 0.00507146C-0.0403384 1.9941 0.403635 4.50035 0.944574 6.21676C1.69328 8.59234 2.92801 10.6493 4.76917 12.2405C7.10882 14.2626 10.291 15.0562 13.5401 14.9969L13.5418 9.64799C14.2439 9.64696 15.2875 10.0141 15.83 10.2822C17.1596 10.9391 18.083 11.8443 18.8432 13.0385C19.462 14.0105 19.4116 14.2722 19.7591 14.999L24 14.9932C23.9008 14.3442 23.338 13.1058 23.0466 12.5605C22.2458 11.0613 21.2875 9.91817 20.0052 8.84877C19.0328 8.03799 18.2183 7.71628 17.9701 7.52535Z" fill="#9D9D9D"/>
</svg>
