<svg width="20" height="20" viewBox="0 0 9 9" fill="none" xmlns="http://www.w3.org/2000/svg">
<path d="M4.28132 7.9375C6.21273 7.9375 7.77845 6.38449 7.77845 4.46875C7.77845 2.55301 6.21273 1 4.28132 1C2.3499 1 0.78418 2.55301 0.78418 4.46875C0.78418 6.38449 2.3499 7.9375 4.28132 7.9375Z" stroke="#585A5A" stroke-width="0.59986" stroke-miterlimit="22.9256"/>
<path d="M2.95167 5.89602C2.56814 5.50363 2.37573 5.02773 2.37573 4.46866C2.37573 3.90959 2.56814 3.43368 2.95442 3.0413C3.33924 2.64892 3.796 2.45264 4.32581 2.45264C4.62934 2.45264 4.91383 2.5171 5.1769 2.64747C5.43979 2.77657 5.62945 2.90548 5.74332 3.03458L5.91413 3.22015L5.50497 3.62198C5.49417 3.60582 5.47787 3.58294 5.45755 3.55479C5.43595 3.5252 5.38853 3.47272 5.31659 3.39755C5.24336 3.32093 5.16482 3.2552 5.07951 3.19855C4.99548 3.14208 4.88582 3.09105 4.75016 3.04675C4.61597 3.00244 4.47373 2.97957 4.32599 2.97957C3.95197 2.97957 3.6294 3.12337 3.35443 3.41099C3.08074 3.6986 2.9438 4.05213 2.9438 4.47011C2.9438 4.88955 3.08074 5.24162 3.35443 5.52924C3.62959 5.81685 3.95197 5.96066 4.32599 5.96066C4.55355 5.96066 4.76902 5.90691 4.97241 5.79942C5.17709 5.69193 5.32464 5.58444 5.41691 5.47676L5.54835 5.31825L5.95349 5.68121C5.9372 5.70264 5.91285 5.73224 5.88026 5.76982C5.84639 5.80741 5.77719 5.87205 5.67156 5.96211C5.56593 6.05344 5.45481 6.13279 5.33819 6.2027C5.22157 6.2726 5.07127 6.33706 4.88692 6.39625C4.70403 6.45545 4.51565 6.48486 4.32599 6.48486C3.79344 6.48486 3.33539 6.28858 2.95186 5.8962L2.95167 5.89602Z" fill="#585A5A"/>
</svg>
