<svg width="14" height="11" viewBox="0 0 14 11" fill="none" xmlns="http://www.w3.org/2000/svg">
<path fill-rule="evenodd" clip-rule="evenodd" d="M4.37938 3.78662C4.37938 2.59661 5.47536 1.66282 6.42127 2.44857C7.33535 3.20585 7.11706 5.01079 5.98924 5.36381C5.17976 5.62003 4.37938 4.80012 4.37938 3.78662ZM10.3141 2.89269C10.8097 2.95532 12.5288 5.14175 12.3969 5.63142C11.1053 10.7786 3.75635 11.2854 1.6326 5.71113C1.36884 5.13606 3.26975 3.04642 3.6654 2.91546C3.66085 3.00656 3.63357 3.08628 3.61992 3.17738C3.32433 4.88553 3.57445 6.05276 4.47033 7.34527C6.26665 9.58294 9.04071 9.00787 10.1776 6.17803C10.5551 5.23855 10.5733 4.17949 10.3732 3.16599C10.355 3.08628 10.3231 2.9724 10.3186 2.89269H10.3141ZM0 5.48338C0 5.68267 0.122786 5.82501 0.272859 6.1097C3.70178 12.5551 10.9462 12.7886 13.8567 5.85917C14.0431 5.41506 14.1659 5.77377 13.4428 4.41294C9.86384 -2.33426 3.03782 -0.762758 0.140977 5.20438C0.113691 5.27271 0 5.43783 0 5.48907L0 5.48338Z" fill="#9D9D9D"/>
</svg>
