<svg width="15" height="15" viewBox="0 0 15 15" fill="none" xmlns="http://www.w3.org/2000/svg">
<path d="M7.95069 8.10993C8.15287 7.92193 8.46911 7.9335 8.65702 8.13575L12.0597 11.7981C12.2476 12.0004 12.236 12.3167 12.0338 12.5047V12.5047C11.8316 12.6927 11.5154 12.6812 11.3275 12.4789L7.92485 8.81655C7.73694 8.61429 7.7485 8.29793 7.95069 8.10993V8.10993Z" fill="#515151"/>
<path d="M8.01876 8.18335C6.76527 9.3489 4.80462 9.2772 3.63953 8.02317C2.47444 6.76915 2.54614 4.8077 3.79963 3.64215C5.05312 2.47661 7.01377 2.54831 8.17886 3.80233C9.34395 5.05636 9.27226 7.01781 8.01876 8.18335Z" fill="#F1F1F1" stroke="#515151" stroke-width="0.8"/>
</svg>
